<svg width="16" height="17" viewBox="0 0 16 17" fill="none" xmlns="http://www.w3.org/2000/svg">
<path d="M7.99999 4.23707L9.63999 5.87707C9.89999 6.13707 10.32 6.13707 10.58 5.87707C10.84 5.61707 10.84 5.19707 10.58 4.93707L8.46666 2.81707C8.20666 2.55707 7.78666 2.55707 7.52666 2.81707L5.41332 4.93707C5.15332 5.19707 5.15332 5.61707 5.41332 5.87707C5.67332 6.13707 6.09332 6.13707 6.35332 5.87707L7.99999 4.23707ZM7.99999 12.4637L6.35999 10.8237C6.09999 10.5637 5.67999 10.5637 5.41999 10.8237C5.15999 11.0837 5.15999 11.5037 5.41999 11.7637L7.53332 13.8837C7.79332 14.1437 8.21332 14.1437 8.47332 13.8837L10.5867 11.7704C10.8467 11.5104 10.8467 11.0904 10.5867 10.8304C10.3267 10.5704 9.90666 10.5704 9.64666 10.8304L7.99999 12.4637Z" fill="#5F6368"/>
</svg>
