<svg width="19" height="18" viewBox="0 0 19 18" fill="none" xmlns="http://www.w3.org/2000/svg">
<path d="M7.9475 10.125H11.0525L9.5 5.985L7.9475 10.125ZM15.5 1.5H3.5C2.675 1.5 2 2.175 2 3V15C2 15.825 2.675 16.5 3.5 16.5H15.5C16.325 16.5 17 15.825 17 15V3C17 2.175 16.325 1.5 15.5 1.5ZM12.2825 13.41L11.6075 11.625H7.3775L6.71 13.4025C6.605 13.6875 6.335 13.875 6.0275 13.875C5.5175 13.875 5.165 13.3575 5.3525 12.885L8.54 4.7775C8.705 4.38 9.08 4.125 9.5 4.125C9.92 4.125 10.295 4.38 10.4525 4.7775L13.64 12.885C13.8275 13.3575 13.475 13.875 12.965 13.875C12.665 13.875 12.395 13.6875 12.2825 13.41Z" fill="#3892F3"/>
</svg>
