<svg width="19" height="18" viewBox="0 0 19 18" fill="none" xmlns="http://www.w3.org/2000/svg">
<path d="M2.54408 15.75C2.40658 15.75 2.28158 15.7156 2.16908 15.6469C2.05658 15.5781 1.96908 15.4875 1.90658 15.375C1.84408 15.2625 1.80971 15.1406 1.80346 15.0094C1.79721 14.8781 1.83158 14.75 1.90658 14.625L8.84408 2.625C8.91908 2.5 9.01596 2.40625 9.13471 2.34375C9.25346 2.28125 9.37533 2.25 9.50033 2.25C9.62533 2.25 9.74721 2.28125 9.86596 2.34375C9.98471 2.40625 10.0816 2.5 10.1566 2.625L17.0941 14.625C17.1691 14.75 17.2035 14.8781 17.1972 15.0094C17.191 15.1406 17.1566 15.2625 17.0941 15.375C17.0316 15.4875 16.9441 15.5781 16.8316 15.6469C16.7191 15.7156 16.5941 15.75 16.4566 15.75H2.54408ZM9.50033 13.5C9.71283 13.5 9.89096 13.4281 10.0347 13.2844C10.1785 13.1406 10.2503 12.9625 10.2503 12.75C10.2503 12.5375 10.1785 12.3594 10.0347 12.2156C9.89096 12.0719 9.71283 12 9.50033 12C9.28783 12 9.10971 12.0719 8.96596 12.2156C8.82221 12.3594 8.75033 12.5375 8.75033 12.75C8.75033 12.9625 8.82221 13.1406 8.96596 13.2844C9.10971 13.4281 9.28783 13.5 9.50033 13.5ZM9.50033 11.25C9.71283 11.25 9.89096 11.1781 10.0347 11.0344C10.1785 10.8906 10.2503 10.7125 10.2503 10.5V8.25C10.2503 8.0375 10.1785 7.85938 10.0347 7.71563C9.89096 7.57188 9.71283 7.5 9.50033 7.5C9.28783 7.5 9.10971 7.57188 8.96596 7.71563C8.82221 7.85938 8.75033 8.0375 8.75033 8.25V10.5C8.75033 10.7125 8.82221 10.8906 8.96596 11.0344C9.10971 11.1781 9.28783 11.25 9.50033 11.25Z" fill="#EA3829"/>
</svg>
