<svg width="9" height="7" viewBox="0 0 9 7" fill="none" xmlns="http://www.w3.org/2000/svg">
<path fill-rule="evenodd" clip-rule="evenodd" d="M2.21929 2.85509C2.12704 2.75958 2.0167 2.6834 1.89469 2.63099C1.77269 2.57858 1.64147 2.551 1.50869 2.54984C1.37591 2.54869 1.24423 2.57399 1.12133 2.62427C0.998438 2.67455 0.886786 2.74881 0.792893 2.8427C0.699001 2.93659 0.624748 3.04824 0.574467 3.17114C0.524186 3.29404 0.498884 3.42571 0.500038 3.55849C0.501192 3.69127 0.528777 3.82249 0.581186 3.9445C0.633595 4.0665 0.709778 4.17685 0.805288 4.26909L2.80529 6.26909C2.99282 6.45656 3.24712 6.56188 3.51229 6.56188C3.77745 6.56188 4.03176 6.45656 4.21929 6.26909L8.21929 2.26909C8.3148 2.17685 8.39098 2.0665 8.44339 1.9445C8.4958 1.82249 8.52339 1.69127 8.52454 1.55849C8.52569 1.42571 8.50039 1.29404 8.45011 1.17114C8.39983 1.04824 8.32558 0.936591 8.23168 0.842699C8.13779 0.748806 8.02614 0.674553 7.90324 0.624272C7.78035 0.573991 7.64867 0.548689 7.51589 0.549842C7.38311 0.550996 7.25189 0.578583 7.12988 0.630992C7.00788 0.683401 6.89754 0.759583 6.80529 0.855094L3.51229 4.14809L2.21929 2.85509Z" fill="white"/>
</svg>
